<?xml version="1.0" encoding="UTF-8" standalone="no"?>
<svg
   xmlns:dc="http://purl.org/dc/elements/1.1/"
   xmlns:cc="http://creativecommons.org/ns#"
   xmlns:rdf="http://www.w3.org/1999/02/22-rdf-syntax-ns#"
   xmlns:svg="http://www.w3.org/2000/svg"
   xmlns="http://www.w3.org/2000/svg"
   xmlns:sodipodi="http://sodipodi.sourceforge.net/DTD/sodipodi-0.dtd"
   xmlns:inkscape="http://www.inkscape.org/namespaces/inkscape"
   width="261.08139"
   height="35.625"
   viewBox="0 0 261.0814 35.625"
   version="1.1"
   id="svg21"
   sodipodi:docname="logo.svg"
   inkscape:version="0.92.5 (2060ec1f9f, 2020-04-08)">
  <metadata
     id="metadata27">
    <rdf:RDF>
      <cc:Work
         rdf:about="">
        <dc:format>image/svg+xml</dc:format>
        <dc:type
           rdf:resource="http://purl.org/dc/dcmitype/StillImage" />
        <dc:title></dc:title>
      </cc:Work>
    </rdf:RDF>
  </metadata>
  <defs
     id="defs25" />
  <sodipodi:namedview
     pagecolor="#ffffff"
     bordercolor="#666666"
     borderopacity="1"
     objecttolerance="10"
     gridtolerance="10"
     guidetolerance="10"
     inkscape:pageopacity="0"
     inkscape:pageshadow="2"
     inkscape:window-width="1294"
     inkscape:window-height="704"
     id="namedview23"
     showgrid="false"
     showguides="false"
     inkscape:zoom="1.8610631"
     inkscape:cx="108.15158"
     inkscape:cy="15.881273"
     inkscape:window-x="1432"
     inkscape:window-y="27"
     inkscape:window-maximized="1"
     inkscape:current-layer="svg21">
    <sodipodi:guide
       position="-0.0023353745,1.0746556"
       orientation="0,238.036"
       id="guide1126"
       inkscape:locked="false" />
    <sodipodi:guide
       position="238.03367,1.0746556"
       orientation="-29,0"
       id="guide1128"
       inkscape:locked="false" />
    <sodipodi:guide
       position="238.03367,30.074656"
       orientation="0,-238.036"
       id="guide1130"
       inkscape:locked="false" />
    <sodipodi:guide
       position="-0.0023353745,30.074656"
       orientation="29,0"
       id="guide1132"
       inkscape:locked="false" />
  </sodipodi:namedview>
  <g
     id="Grupo_342"
     data-name="Grupo 342"
     transform="translate(-100.00234,-116.44966)"
     style="fill:#ffffff">
    <g
       id="Grupo_341"
       data-name="Grupo 341"
       transform="translate(100,122)"
       style="fill:#ffffff">
      <g
         id="Grupo_340"
         data-name="Grupo 340"
         transform="translate(51.059,4.765)"
         style="fill:#ffffff">
        <path
           inkscape:connector-curvature="0"
           id="Trazado_2182"
           data-name="Trazado 2182"
           d="m 1308.994,-229.088 h -5.175 l 0.934,-4.619 h 16.3 l -0.933,4.619 h -5.175 l -2.6,13.049 h -5.956 z"
           transform="translate(-1303.819,234.111)"
           style="fill:#ffffff" />
        <path
           inkscape:connector-curvature="0"
           id="Trazado_2183"
           data-name="Trazado 2183"
           d="m 1337.653,-221.188 2.953,5.149 h -6.185 l -2.5,-4.442 h -1.463 l -0.884,4.442 h -5.957 l 3.534,-17.668 h 7.926 c 4.669,0 7.344,2.145 7.344,5.806 a 6.927,6.927 0 0 1 -4.768,6.713 z m -3.484,-7.926 h -1.994 l -0.833,4.14 h 2.449 c 1.64,0 2.6,-0.858 2.6,-2.348 0,-1.261 -0.858,-1.791 -2.222,-1.791 z"
           transform="translate(-1308.371,234.111)"
           style="fill:#ffffff" />
        <path
           inkscape:connector-curvature="0"
           id="Trazado_2184"
           data-name="Trazado 2184"
           d="m 1349.318,-223.655 c 0,-6.235 4.645,-10.576 11.131,-10.576 5.5,0 8.961,3.256 8.961,7.9 0,6.234 -4.644,10.576 -11.131,10.576 -5.503,0 -8.961,-3.256 -8.961,-7.9 z m 14.084,-2.323 a 3.214,3.214 0 0 0 -3.458,-3.432 c -2.928,0 -4.619,2.5 -4.619,5.4 a 3.213,3.213 0 0 0 3.458,3.432 c 2.928,0.001 4.617,-2.497 4.617,-5.4 z"
           transform="translate(-1314.28,234.231)"
           style="fill:#ffffff" />
        <path
           inkscape:connector-curvature="0"
           id="Trazado_2185"
           data-name="Trazado 2185"
           d="m 1396.788,-233.707 -3.534,17.668 h -4.9 l -5.073,-8.228 -1.64,8.228 h -5.806 l 3.534,-17.668 h 4.9 l 5.073,8.228 1.641,-8.228 z"
           transform="translate(-1320.377,234.111)"
           style="fill:#ffffff" />
        <path
           inkscape:connector-curvature="0"
           id="Trazado_2186"
           data-name="Trazado 2186"
           d="m 1420.507,-229.214 -0.4,2.07 h 7.471 l -0.859,4.291 h -7.5 l -0.454,2.322 h 8.86 l -0.909,4.493 h -14.69 l 3.534,-17.668 h 14.362 l -0.909,4.493 z"
           transform="translate(-1328.697,234.111)"
           style="fill:#ffffff" />
        <path
           inkscape:connector-curvature="0"
           id="Trazado_2187"
           data-name="Trazado 2187"
           d="m 1442.668,-229.214 -0.605,3.03 h 7.37 l -0.909,4.493 h -7.345 l -1.136,5.653 h -5.957 l 3.534,-17.668 h 14.361 l -0.908,4.493 z"
           transform="translate(-1333.769,234.111)"
           style="fill:#ffffff" />
        <path
           inkscape:connector-curvature="0"
           id="Trazado_2188"
           data-name="Trazado 2188"
           d="m 1463.779,-229.214 -0.605,3.03 h 7.37 l -0.909,4.493 h -7.345 l -1.135,5.653 h -5.955 l 3.534,-17.668 h 14.362 l -0.909,4.493 z"
           transform="translate(-1338.623,234.111)"
           style="fill:#ffffff" />
        <path
           inkscape:connector-curvature="0"
           id="Trazado_2189"
           data-name="Trazado 2189"
           d="m 1484.789,-229.214 -0.4,2.07 h 7.471 l -0.858,4.291 h -7.5 l -0.453,2.322 h 8.859 l -0.908,4.493 h -14.69 l 3.533,-17.668 h 14.357 l -0.909,4.493 z"
           transform="translate(-1343.476,234.111)"
           style="fill:#ffffff" />
        <path
           inkscape:connector-curvature="0"
           id="Trazado_2190"
           data-name="Trazado 2190"
           d="m 1499.647,-223.655 c 0,-6.209 4.62,-10.576 11.157,-10.576 3.381,0 6.158,1.262 7.446,3.533 l -4.292,3.358 a 3.861,3.861 0 0 0 -3.533,-2.07 c -2.8,0 -4.771,2.221 -4.771,5.376 a 3.348,3.348 0 0 0 3.635,3.458 4.977,4.977 0 0 0 3.938,-2.044 l 3.509,3.357 c -2.146,2.625 -4.77,3.509 -8.027,3.509 -5.477,-0.001 -9.062,-3.207 -9.062,-7.901 z"
           transform="translate(-1348.842,234.231)"
           style="fill:#ffffff" />
        <path
           inkscape:connector-curvature="0"
           id="Trazado_2191"
           data-name="Trazado 2191"
           d="m 1529.407,-229.088 h -5.175 l 0.934,-4.619 h 16.3 l -0.933,4.619 h -5.174 l -2.6,13.049 h -5.957 z"
           transform="translate(-1354.495,234.111)"
           style="fill:#ffffff" />
      </g>
      <g
         id="Grupo_337"
         data-name="Grupo 337"
         style="fill:#ffffff">
        <g
           id="Grupo_284"
           data-name="Grupo 284"
           transform="translate(0,13.561)"
           style="fill:#ffffff">
          <g
             id="Grupo_283"
             data-name="Grupo 283"
             style="fill:#ffffff">
            <g
               id="Grupo_282"
               data-name="Grupo 282"
               style="fill:#ffffff">
              <path
                 inkscape:connector-curvature="0"
                 id="Trazado_2017"
                 data-name="Trazado 2017"
                 d="m 1258.657,-207.4 -4.587,-1.825 a 0.427,0.427 0 0 1 -0.236,-0.229 l -2.3,-5.34 a 3,3 0 0 0 -3.937,-1.565 v 0 l -5.34,2.3 a 0.431,0.431 0 0 1 -0.332,0.006 l -4.135,-1.643 a 0.432,0.432 0 0 1 -0.241,-0.561 0.434,0.434 0 0 1 0.229,-0.236 l 14.582,-6.284 a 0.433,0.433 0 0 1 0.568,0.226 v 0 l 6.284,14.582 a 0.432,0.432 0 0 1 -0.236,0.564 0.434,0.434 0 0 1 -0.319,0.005 z"
                 transform="translate(-1237.516,222.809)"
                 style="fill:#ffffff" />
            </g>
          </g>
        </g>
        <path
           inkscape:connector-curvature="0"
           id="Trazado_2180"
           data-name="Trazado 2180"
           d="m 1276.949,-236.823 -21.949,-3.595 11.614,28.171 15.722,-19.188 z m 1.925,5.006 -7.444,1.438 4.812,-3.86 z m -5.391,-3.656 -4.812,4.621 -7.571,-6.548 z m -7.186,17.646 -7.547,-18.213 8.543,6.792 z m 1.988,0 1.285,-10.4 8.791,-1.413 z"
           transform="translate(-1241.536,240.418)"
           style="fill:#ffffff" />
      </g>
    </g>
  </g>
  <text
     xml:space="preserve"
     style="font-style:normal;font-variant:normal;font-weight:normal;font-stretch:normal;font-size:48px;line-height:1.25;font-family:sans-serif;-inkscape-font-specification:'sans-serif, Normal';font-variant-ligatures:normal;font-variant-caps:normal;font-variant-numeric:normal;font-feature-settings:normal;text-align:start;letter-spacing:0px;word-spacing:0px;writing-mode:lr-tb;text-anchor:start;fill:#ff0000;fill-opacity:1;stroke:none"
     x="235.34703"
     y="35.625"
     id="text839"><tspan
       sodipodi:role="line"
       id="tspan837"
       x="235.34703"
       y="35.625">2</tspan></text>
</svg>
